<?xml version="1.0" encoding="utf-8"?><!-- Uploaded to: SVG Repo, www.svgrepo.com, Generator: SVG Repo Mixer Tools -->
<svg width="800px" height="800px" viewBox="0 0 24 24" fill="none" xmlns="http://www.w3.org/2000/svg">
<path d="M6 17.4998C6.41783 17.186 6.9372 17 7.5 17C8.88071 17 10 18.1193 10 19.5C10 20.0628 9.81403 20.5822 9.50018 21M18 17.4998C17.5822 17.186 17.0628 17 16.5 17C15.1193 17 14 18.1193 14 19.5C14 20.0628 14.186 20.5822 14.4998 21M17.9999 9.99995C18.9883 9.99918 19.5064 9.98663 19.908 9.78201C20.2843 9.59027 20.5903 9.28431 20.782 8.90798C21 8.48016 21 7.9201 21 6.8V6.2C21 5.0799 21 4.51984 20.782 4.09202C20.5903 3.71569 20.2843 3.40973 19.908 3.21799C19.4802 3 18.9201 3 17.8 3H6.2C5.0799 3 4.51984 3 4.09202 3.21799C3.71569 3.40973 3.40973 3.71569 3.21799 4.09202C3 4.51984 3 5.0799 3 6.2V6.8C3 7.9201 3 8.48016 3.21799 8.90798C3.40973 9.28431 3.71569 9.59027 4.09202 9.78201C4.49359 9.98663 5.01167 9.99918 6.00005 9.99995M17.9999 9.99995C18 10.0646 18 10.1312 18 10.2V17.8C18 18.9201 18 19.4802 17.782 19.908C17.5903 20.2843 17.2843 20.5903 16.908 20.782C16.4802 21 15.9201 21 14.8 21H9.2C8.07989 21 7.51984 21 7.09202 20.782C6.71569 20.5903 6.40973 20.2843 6.21799 19.908C6 19.4802 6 18.9201 6 17.8V10.2C6 10.1312 6 10.0646 6.00005 9.99995M17.9999 9.99995C17.9992 9.01163 17.9866 8.49358 17.782 8.09202C17.5903 7.71569 17.2843 7.40973 16.908 7.21799C16.4802 7 15.9201 7 14.8 7H9.2C8.0799 7 7.51984 7 7.09202 7.21799C6.71569 7.40973 6.40973 7.71569 6.21799 8.09202C6.01338 8.49358 6.00082 9.01163 6.00005 9.99995M14 12C14 13.1046 13.1046 14 12 14C10.8954 14 10 13.1046 10 12C10 10.8954 10.8954 10 12 10C13.1046 10 14 10.8954 14 12Z" stroke="#000000" stroke-width="2" stroke-linecap="round" stroke-linejoin="round"/>
</svg>